<?xml version="1.0" encoding="utf-8"?>
<!-- Tabler Icons "cube-off", MIT, scaled from its 24 box to 16. See LICENSE-tabler.txt. -->
<svg xmlns="http://www.w3.org/2000/svg" width="16" height="16" viewBox="0 0 16 16"
     fill="none" stroke="currentColor" stroke-linecap="round" stroke-linejoin="round">
  <path d="M 13.887 11.206 c 0.073 -0.165 0.113 -0.347 0.113 -0.534 v -5.345 a 1.32 1.32 0 0 0 -0.667 -1.145 l -4.667 -2.672 a 1.344 1.344 0 0 0 -1.333 0 l -2.008 1.15 m -1.698 0.972 l -0.961 0.55 c -0.413 0.237 -0.667 0.673 -0.667 1.145 v 5.345 c 0 0.473 0.254 0.909 0.667 1.145 l 4.667 2.672 a 1.344 1.344 0 0 0 1.333 0 l 3.696 -2.116" />
  <path d="M 8 14.667 v -6.667" />
  <path d="M 9.688 7.025 l 4.132 -2.385" />
  <path d="M 2.18 4.64 l 5.82 3.36" />
  <path d="M 2 2 l 12 12" />
</svg>
